<?xml version="1.0" standalone="no"?>
<!DOCTYPE svg PUBLIC "-//W3C//DTD SVG 20010904//EN"
 "http://www.w3.org/TR/2001/REC-SVG-20010904/DTD/svg10.dtd">
<svg version="1.0" xmlns="http://www.w3.org/2000/svg"
 width="315.000000pt" height="315.000000pt" viewBox="0 0 315.000000 315.000000"
 preserveAspectRatio="xMidYMid meet">
<metadata>
Created by potrace 1.11, written by Peter Selinger 2001-2013
</metadata>
<g transform="translate(0.000000,315.000000) scale(0.100000,-0.100000)"
fill="#000000" stroke="none">
<path d="M1481 3029 c-12 -19 -26 -50 -31 -69 -7 -28 -21 -42 -65 -68 -30 -18
-53 -37 -50 -42 3 -5 32 -7 63 -4 55 6 58 5 70 -20 7 -15 12 -42 12 -61 0 -30
4 -35 23 -35 12 0 42 -18 66 -39 l45 -39 -39 -76 -38 -76 -45 0 c-33 0 -66 12
-139 50 -60 31 -108 50 -129 50 -31 0 -36 -5 -61 -54 l-28 -54 -104 49 c-57
27 -111 49 -121 49 -23 0 -60 -42 -60 -68 0 -41 39 -39 58 4 7 13 20 24 30 24
25 0 182 -77 182 -90 0 -14 -8 -13 -67 12 -43 18 -57 19 -78 10 -34 -16 -52
-56 -35 -77 21 -26 53 -14 62 23 5 17 11 32 13 32 10 0 85 -32 85 -37 0 -2 -7
-18 -16 -34 -14 -28 -14 -33 1 -55 16 -25 144 -94 175 -94 30 0 187 -77 193
-95 4 -9 7 -38 7 -65 0 -112 52 -272 104 -325 21 -21 26 -35 26 -79 l0 -54
-43 -11 c-79 -19 -121 -73 -85 -109 15 -15 201 -16 229 -2 18 10 19 23 19 234
l0 224 37 22 37 22 126 -61 c71 -35 140 -61 157 -61 43 0 86 39 117 105 27 55
34 122 17 154 -5 9 -73 46 -150 81 l-141 65 -60 116 c-45 88 -60 127 -60 158
0 42 -19 90 -48 124 -13 15 -13 19 0 35 16 18 68 154 68 177 0 50 -158 150
-257 162 -51 5 -52 5 -72 -28z m300 -151 c-32 -107 -47 -142 -63 -146 -26 -6
-22 -25 12 -74 56 -79 47 -158 -25 -215 l-32 -26 49 -48 c28 -27 55 -49 61
-49 6 0 8 -2 5 -5 -3 -3 -49 16 -104 42 -54 26 -126 55 -159 64 l-60 18 77 0
76 1 47 95 c57 116 51 161 -15 125 -15 -8 -20 -6 -25 9 -7 23 24 91 42 91 15
0 17 41 3 58 -7 9 -7 9 2 2 20 -17 23 -13 48 61 l25 70 22 -25 c15 -18 19 -32
14 -48z m-192 -18 c63 -23 69 -27 47 -36 -9 -3 -16 -12 -16 -20 0 -8 -1 -14
-2 -14 -23 3 -132 48 -135 57 -2 6 9 16 24 21 15 6 28 11 28 11 0 1 24 -8 54
-19z m-286 -308 c16 -10 41 -23 56 -31 14 -8 20 -16 14 -18 -7 -3 -10 -12 -7
-21 5 -15 4 -15 -6 1 -15 23 -45 22 -71 -4 -12 -12 -20 -15 -17 -8 2 8 19 22
37 31 l34 17 -34 20 c-19 12 -41 21 -49 21 -10 0 -37 -44 -73 -115 l-57 -115
28 -14 c15 -9 23 -15 18 -16 -18 0 -76 42 -76 56 0 7 24 61 53 119 l52 106 35
-6 c19 -4 47 -14 63 -23z m501 -159 l36 -73 -27 12 c-16 6 -45 28 -65 47 l-37
36 27 27 c14 15 26 27 28 25 1 -1 18 -35 38 -74z m-455 19 c-29 -24 -50 -56
-69 -107 -9 -23 -6 -27 38 -49 26 -14 43 -25 39 -26 -4 0 -22 7 -39 16 -17 9
-43 17 -57 18 -15 1 -38 10 -51 20 -16 12 -18 16 -7 12 25 -8 71 89 62 131 -6
27 -5 26 9 -4 8 -18 21 -33 27 -33 18 0 59 41 59 59 0 13 2 14 9 2 6 -10 0
-21 -20 -39z m210 -69 c67 -31 121 -60 121 -64 0 -7 -246 104 -259 117 -15 15
32 -3 138 -53z m422 -114 c96 -45 182 -88 192 -97 52 -46 -33 -232 -106 -232
-11 0 -80 29 -154 64 l-134 65 -44 -30 -45 -30 0 -224 c0 -194 -2 -224 -16
-229 -9 -3 -56 -6 -105 -6 -74 0 -91 3 -96 17 -7 17 28 53 51 53 6 -1 -1 -8
-16 -16 -16 -8 -28 -21 -28 -29 0 -12 18 -15 95 -15 94 0 95 0 95 24 0 38 -33
56 -82 44 -22 -5 -43 -6 -46 -4 -2 3 14 8 37 12 l41 7 0 58 c0 32 4 60 9 64
17 10 3 47 -29 75 -20 18 -28 33 -24 43 3 9 -2 39 -11 66 -17 52 -17 108 0 66
4 -11 14 -35 22 -54 10 -25 16 -32 24 -24 8 8 8 20 0 44 -6 17 -11 45 -11 60
0 15 -4 38 -9 51 -5 13 -12 34 -15 48 -4 20 -25 35 -105 75 -55 27 -99 50 -97
52 1 2 68 -28 149 -67 80 -38 147 -70 149 -70 2 0 2 17 0 38 -5 48 22 85 62
85 28 0 60 -13 214 -84 69 -32 82 -42 82 -62 0 -42 -20 -84 -47 -96 -29 -13
-22 -26 19 -36 23 -6 33 -2 57 24 29 31 71 125 71 159 0 9 -4 22 -8 28 -4 6
-78 43 -164 84 -138 64 -169 80 -155 80 2 0 82 -36 178 -81z"/>
<path d="M1694 2176 c-32 -50 -18 -66 111 -133 66 -34 132 -62 146 -62 31 -1
57 25 65 66 7 36 6 37 -161 110 -115 50 -138 52 -161 19z"/>
<path d="M1630 1651 c0 -34 5 -51 15 -55 12 -4 15 4 15 43 0 34 -5 51 -15 55
-12 4 -15 -4 -15 -43z"/>
<path d="M414 1919 c-46 -13 -55 -28 -39 -66 18 -43 32 -42 41 3 6 31 10 35
33 32 18 -2 29 -11 35 -30 13 -37 -10 -84 -74 -152 -75 -79 -71 -86 51 -86
l102 0 -6 45 c-6 57 -15 66 -34 38 -11 -17 -25 -23 -51 -23 l-35 0 56 59 c48
50 57 65 57 96 0 49 -13 71 -51 84 -36 13 -42 13 -85 0z"/>
<path d="M733 1915 c-45 -19 -67 -67 -68 -145 0 -81 25 -130 75 -146 67 -22
120 11 141 89 22 84 -9 179 -66 203 -41 17 -42 17 -82 -1z m74 -52 c5 -16 8
-57 8 -93 0 -91 -10 -120 -40 -120 -19 0 -26 7 -34 38 -6 20 -11 57 -11 82 0
25 5 62 11 83 8 30 15 37 34 37 18 0 27 -7 32 -27z"/>
<path d="M2353 1906 c-53 -21 -65 -42 -24 -40 20 1 21 -3 21 -104 0 -95 -2
-104 -20 -109 -11 -3 -20 -12 -20 -19 0 -11 18 -14 75 -14 57 0 75 3 75 14 0
7 -9 16 -20 19 -19 5 -20 14 -20 141 0 75 -3 135 -7 135 -5 -1 -32 -11 -60
-23z"/>
<path d="M2603 1915 c-39 -16 -53 -42 -53 -93 0 -53 34 -85 89 -84 23 0 41 -2
41 -6 -1 -21 -32 -58 -66 -78 -30 -19 -35 -24 -21 -30 44 -16 118 34 148 101
37 80 16 165 -46 191 -42 17 -51 17 -92 -1z m77 -44 c5 -11 10 -35 10 -55 0
-26 -5 -36 -20 -41 -32 -10 -50 12 -50 60 0 23 3 45 7 48 13 14 43 7 53 -12z"/>
<path d="M70 1536 c0 -8 7 -17 16 -20 25 -10 1077 -7 1093 3 44 28 -10 31
-555 31 -467 0 -554 -2 -554 -14z"/>
<path d="M1970 1536 c0 -8 7 -17 16 -20 20 -8 1068 -8 1088 0 9 3 16 12 16 20
0 12 -88 14 -560 14 -472 0 -560 -2 -560 -14z"/>
<path d="M1393 1381 c-161 -44 -268 -122 -325 -239 -31 -62 -33 -74 -33 -167
0 -93 2 -105 33 -167 52 -107 151 -182 296 -225 116 -35 338 -32 477 5 l64 17
3 117 c2 82 7 119 16 127 7 6 38 20 67 30 l54 18 3 51 3 52 -260 0 -261 0 0
-53 0 -53 63 -19 62 -20 3 -92 3 -93 -54 0 c-179 0 -287 112 -287 298 0 84 14
129 59 188 77 102 218 138 326 84 42 -21 54 -34 78 -82 l28 -58 64 0 65 0 0
105 c0 122 4 117 -125 161 -110 37 -312 44 -422 15z"/>
<path d="M84 1376 c-3 -8 -4 -31 -2 -52 3 -38 5 -40 60 -59 32 -11 62 -25 68
-31 7 -7 9 -98 8 -265 l-3 -254 -63 -20 -62 -19 0 -53 0 -53 261 0 260 0 -3
52 -3 51 -54 18 c-77 27 -81 32 -81 105 l0 64 113 0 c229 1 341 49 396 170 44
97 13 217 -72 277 -98 69 -189 83 -565 83 -207 0 -254 -3 -258 -14z m567 -117
c47 -12 86 -52 100 -101 17 -65 -12 -123 -80 -158 -30 -15 -139 -30 -175 -23
l-26 5 0 143 c0 128 2 144 18 148 22 6 115 -2 163 -14z"/>
<path d="M2289 1053 l-186 -338 -62 -24 -61 -25 0 -48 0 -48 201 0 200 0 -3
52 -3 52 -44 11 c-52 12 -59 24 -35 59 l16 26 164 0 163 0 16 -30 c17 -33 14
-36 -57 -59 -37 -12 -38 -14 -38 -62 l0 -49 254 0 c247 0 255 1 261 20 15 47
-3 75 -68 106 l-62 29 -168 333 -167 332 -68 0 -67 0 -186 -337z m246 -79 c30
-65 55 -119 55 -120 0 -2 -54 -4 -120 -4 l-121 0 63 120 c35 66 64 120 65 120
1 0 27 -52 58 -116z"/>
<path d="M72 423 c3 -17 83 -18 1508 -18 1425 0 1505 1 1508 18 3 16 -74 17
-1508 17 -1434 0 -1511 -1 -1508 -17z"/>
<path d="M1266 237 c-19 -50 -40 -104 -45 -120 -6 -15 -18 -30 -26 -33 -30
-12 -14 -24 30 -24 44 0 60 12 30 23 -11 5 -12 12 -4 37 10 27 15 30 50 30 34
0 41 -4 50 -27 7 -18 6 -30 -1 -37 -19 -19 -10 -26 33 -26 53 0 62 7 37 29
-11 9 -38 64 -60 123 -23 59 -45 110 -50 113 -4 3 -24 -37 -44 -88z m63 -59
c1 -5 -12 -8 -29 -8 -19 0 -28 4 -25 13 2 6 10 26 16 42 l11 30 13 -35 c8 -19
14 -38 14 -42z"/>
<path d="M1505 316 c-50 -23 -68 -51 -72 -114 -6 -92 37 -142 122 -142 19 0
46 5 60 12 21 9 25 18 25 55 0 23 5 43 10 43 6 0 10 5 10 10 0 6 -22 10 -50
10 -51 0 -67 -13 -30 -25 15 -5 20 -15 20 -41 0 -28 -4 -34 -22 -35 -40 -2
-53 2 -78 27 -21 21 -25 34 -24 81 0 48 4 59 28 79 40 35 78 32 95 -8 l14 -33
7 35 c3 19 4 38 1 42 -12 15 -87 18 -116 4z"/>
<path d="M2451 223 c-22 -60 -45 -114 -49 -122 -17 -29 -31 -22 -35 16 l-3 38
-14 -32 c-13 -29 -19 -33 -52 -33 l-38 0 0 105 c0 87 3 105 15 105 8 0 15 5
15 10 0 6 -22 10 -50 10 -27 0 -50 -4 -50 -10 0 -5 5 -10 10 -10 6 0 10 -41
10 -104 0 -59 -4 -108 -10 -111 -30 -19 2 -25 125 -25 122 0 161 8 120 23 -11
5 -12 12 -4 37 10 27 15 30 50 30 34 0 41 -4 50 -27 7 -18 6 -30 -1 -37 -19
-19 -10 -26 33 -26 52 0 64 8 39 26 -11 7 -39 65 -63 128 -24 64 -46 116 -50
116 -4 0 -25 -48 -48 -107z m68 -45 c1 -5 -12 -8 -29 -8 -19 0 -28 4 -25 13 2
6 10 26 16 42 l11 30 13 -35 c8 -19 14 -38 14 -42z"/>
<path d="M2695 316 c-50 -22 -68 -51 -72 -114 -5 -66 19 -116 63 -132 28 -11
94 -13 118 -4 18 7 21 41 6 64 -7 11 -11 9 -19 -11 -12 -34 -28 -39 -71 -25
-91 30 -67 206 28 206 23 0 31 -5 36 -25 9 -36 26 -31 26 9 0 30 -4 34 -31 40
-42 8 -49 7 -84 -8z"/>
<path d="M90 310 c0 -5 7 -10 15 -10 12 0 15 -18 15 -104 0 -83 -3 -105 -15
-110 -8 -3 -15 -11 -15 -17 0 -8 24 -10 76 -7 69 3 79 6 100 31 30 36 30 63 0
90 -19 17 -21 23 -11 32 26 19 29 61 6 84 -18 18 -33 21 -96 21 -43 0 -75 -4
-75 -10z m121 -20 c21 -12 25 -50 7 -68 -7 -7 -22 -12 -35 -12 -21 0 -23 5
-23 45 0 48 11 56 51 35z m25 -135 c20 -30 -6 -65 -47 -65 -28 0 -29 2 -29 46
0 45 0 45 31 42 18 -2 38 -12 45 -23z"/>
<path d="M310 310 c0 -5 7 -10 15 -10 12 0 15 -18 15 -105 0 -85 -3 -107 -15
-111 -8 -4 -15 -10 -15 -15 0 -12 177 -12 185 1 7 12 -5 60 -15 60 -5 0 -12
-9 -15 -20 -5 -16 -15 -20 -46 -20 l-39 0 0 45 c0 42 2 45 26 45 15 0 33 -8
40 -17 12 -16 13 -13 14 25 0 23 -4 42 -10 42 -5 0 -10 -4 -10 -10 0 -5 -13
-10 -30 -10 -29 0 -30 2 -30 45 0 45 0 45 35 45 24 0 37 -6 45 -20 16 -29 30
-24 30 10 l0 30 -90 0 c-53 0 -90 -4 -90 -10z"/>
<path d="M520 280 c0 -22 2 -40 5 -40 2 0 11 14 20 30 9 18 23 30 35 30 19 0
20 -7 20 -105 0 -85 -3 -107 -15 -111 -32 -13 -13 -24 40 -24 53 0 72 11 40
24 -12 4 -15 26 -15 111 0 100 1 105 21 105 14 0 24 -10 32 -30 16 -42 27 -37
27 10 l0 40 -105 0 -105 0 0 -40z"/>
<path d="M740 310 c0 -5 7 -10 15 -10 12 0 15 -18 15 -105 0 -85 -3 -107 -15
-111 -31 -12 -13 -24 35 -24 48 0 67 14 35 26 -10 4 -15 20 -15 50 l0 44 55 0
55 0 0 -45 c0 -31 -5 -47 -15 -51 -31 -12 -13 -24 35 -24 48 0 67 14 35 26
-22 9 -22 214 0 214 8 0 15 5 15 10 0 6 -22 10 -50 10 -27 0 -50 -4 -50 -10 0
-5 7 -10 15 -10 11 0 15 -12 15 -45 l0 -45 -55 0 -55 0 0 45 c0 33 4 45 15 45
8 0 15 5 15 10 0 6 -22 10 -50 10 -27 0 -50 -4 -50 -10z"/>
<path d="M1013 306 c14 -11 17 -30 17 -115 0 -81 -3 -103 -15 -107 -28 -11 -4
-24 46 -24 47 0 65 12 34 24 -9 3 -15 19 -15 41 0 31 3 35 25 35 33 0 81 25
89 45 13 34 6 72 -17 93 -20 19 -35 22 -103 22 -68 -1 -77 -3 -61 -14z m112
-12 c9 -4 21 -18 26 -32 13 -33 -12 -72 -46 -72 -24 0 -25 3 -25 55 0 57 6 63
45 49z"/>
<path d="M1670 310 c0 -5 7 -10 15 -10 12 0 15 -18 15 -105 0 -85 -3 -107 -15
-111 -37 -15 -8 -24 75 -24 l90 0 0 35 c0 38 -15 47 -25 15 -5 -16 -15 -20
-46 -20 l-39 0 0 45 c0 40 3 45 22 45 12 0 30 -7 40 -17 17 -15 18 -14 18 25
0 23 -4 42 -10 42 -5 0 -10 -4 -10 -10 0 -5 -13 -10 -30 -10 -29 0 -30 2 -30
45 0 45 0 45 34 45 26 0 36 -5 41 -20 9 -29 22 -24 27 10 l5 30 -89 0 c-52 0
-88 -4 -88 -10z"/>
<path d="M1973 306 c14 -11 17 -30 17 -114 0 -86 -3 -102 -17 -111 -17 -9 -17
-10 0 -16 34 -14 145 0 166 19 27 24 27 73 1 101 -18 20 -19 23 -5 35 21 17
19 63 -3 83 -14 13 -38 17 -98 17 -68 -1 -77 -3 -61 -14z m118 -16 c21 -12 25
-50 7 -68 -7 -7 -25 -12 -40 -12 -27 0 -28 2 -28 45 0 39 3 45 21 45 11 0 29
-5 40 -10z m10 -120 c21 -12 25 -50 7 -68 -7 -7 -27 -12 -45 -12 -32 0 -33 1
-33 45 0 42 2 45 26 45 14 0 34 -5 45 -10z"/>
<path d="M2840 310 c0 -5 7 -10 15 -10 12 0 15 -18 15 -105 0 -85 -3 -107 -15
-111 -31 -12 -13 -24 35 -24 48 0 67 14 35 26 -16 7 -22 94 -7 94 5 0 23 -20
41 -45 45 -63 59 -75 87 -75 31 0 30 11 -2 41 -14 13 -40 41 -56 62 l-30 38
27 40 c16 22 40 48 54 59 l26 19 -47 1 c-27 0 -48 -4 -48 -10 0 -5 5 -10 11
-10 13 0 -19 -54 -48 -82 l-23 -21 0 51 c0 40 4 52 15 52 8 0 15 5 15 10 0 6
-22 10 -50 10 -27 0 -50 -4 -50 -10z"/>
</g>
</svg>
